<?xml version="1.0" encoding="utf-8"?>
<!-- Generator: Adobe Illustrator 28.1.0, SVG Export Plug-In . SVG Version: 6.00 Build 0)  -->
<svg version="1.1" id="Ebene_1" xmlns="http://www.w3.org/2000/svg" xmlns:xlink="http://www.w3.org/1999/xlink" x="0px" y="0px"
	 viewBox="0 0 48 48" style="enable-background:new 0 0 48 48;" xml:space="preserve">
<style type="text/css">
	.st0{fill:#FFFFFF;}
</style>
<path class="st0" d="M40,32.6V40h-8v-4h-4v-4h-4v-3.2c-1.5,0.8-3.3,1.2-5,1.2c-1.9,0-3.9-0.5-5.5-1.5c-0.8-0.5-1.6-1.1-2.2-1.7
	c-0.7-0.7-1.3-1.4-1.7-2.2c-0.5-0.8-0.9-1.7-1.1-2.6C8.1,21,8,20,8,19c0-1.9,0.5-3.9,1.5-5.5c0.5-0.8,1.1-1.6,1.7-2.2
	c0.7-0.7,1.4-1.3,2.2-1.7c0.8-0.5,1.7-0.9,2.6-1.1C17,8.1,18,8,19,8c1.9,0,3.9,0.5,5.5,1.5c0.8,0.5,1.6,1.1,2.2,1.7
	c0.7,0.7,1.3,1.4,1.7,2.2c0.5,0.8,0.9,1.7,1.1,2.6C29.9,17,30,18,30,19c0,0.5,0,1.1-0.1,1.6c-0.1,0.5-0.2,1-0.4,1.5L40,32.6z
	 M38,33.4L27.2,22.6c0.2-0.6,0.4-1.2,0.6-1.8c0.1-0.6,0.2-1.2,0.2-1.9c0-1.2-0.2-2.4-0.7-3.5c-0.5-1.1-1.1-2-1.9-2.9
	c-0.8-0.8-1.8-1.5-2.9-1.9C21.4,10.2,20.2,10,19,10c-1.2,0-2.4,0.2-3.5,0.7c-1.1,0.5-2,1.1-2.9,1.9c-0.8,0.8-1.5,1.8-1.9,2.9
	C10.2,16.6,10,17.8,10,19c0,1.2,0.2,2.4,0.7,3.5c0.5,1.1,1.1,2,1.9,2.9c0.8,0.8,1.8,1.5,2.9,1.9c2.1,0.9,4.4,1,6.5,0.2
	c1-0.3,1.9-0.8,2.6-1.5H26v4h4v4h4v4h4V33.4z M16,14c0.3,0,0.5,0.1,0.8,0.2c0.2,0.1,0.4,0.2,0.6,0.4c0.2,0.2,0.3,0.4,0.4,0.6
	C18,15.5,18,15.7,18,16c0,0.3-0.1,0.5-0.2,0.8c-0.1,0.2-0.2,0.4-0.4,0.6c-0.2,0.2-0.4,0.3-0.6,0.4C16.5,18,16.3,18,16,18
	c-0.3,0-0.5-0.1-0.8-0.2c-0.2-0.1-0.4-0.2-0.6-0.4c-0.2-0.2-0.3-0.4-0.4-0.6C14,16.5,14,16.3,14,16c0-0.3,0.1-0.5,0.2-0.8
	c0.1-0.2,0.2-0.4,0.4-0.6c0.2-0.2,0.4-0.3,0.6-0.4C15.5,14,15.7,14,16,14z"/>
</svg>
